<?xml version="1.0" encoding="UTF-8" standalone="no"?>
<!-- Created with Inkscape (http://www.inkscape.org/) -->

<svg
   xmlns:dc="http://purl.org/dc/elements/1.1/"
   xmlns:cc="http://creativecommons.org/ns#"
   xmlns:rdf="http://www.w3.org/1999/02/22-rdf-syntax-ns#"
   xmlns:svg="http://www.w3.org/2000/svg"
   xmlns="http://www.w3.org/2000/svg"
   xmlns:sodipodi="http://sodipodi.sourceforge.net/DTD/sodipodi-0.dtd"
   xmlns:inkscape="http://www.inkscape.org/namespaces/inkscape"
   id="svg2"
   version="1.1"
   inkscape:version="0.91 r13725"
   width="70.220001"
   height="68.098999"
   viewBox="0 0 316.25 306.25"
   sodipodi:docname="rabbit.svg">
  <metadata
     id="metadata8">
    <rdf:RDF>
      <cc:Work
         rdf:about="">
        <dc:format>image/svg+xml</dc:format>
        <dc:type
           rdf:resource="http://purl.org/dc/dcmitype/StillImage" />
        <dc:title></dc:title>
      </cc:Work>
    </rdf:RDF>
  </metadata>
  <defs
     id="defs6" />
  <sodipodi:namedview
     pagecolor="#ffffff"
     bordercolor="#666666"
     borderopacity="1"
     objecttolerance="10"
     gridtolerance="10"
     guidetolerance="10"
     inkscape:pageopacity="0"
     inkscape:pageshadow="2"
     inkscape:window-width="1385"
     inkscape:window-height="541"
     id="namedview4"
     showgrid="false"
     inkscape:zoom="1"
     inkscape:cx="111.78605"
     inkscape:cy="144.57076"
     inkscape:window-x="340"
     inkscape:window-y="235"
     inkscape:window-maximized="0"
     inkscape:current-layer="svg2" />
  <path
     style="fill:#000000"
     d="m 0,153.12569 0,-153.34811534 158.35541,0 158.35542,0 0,54.71948034 0,54.719475 -2.81661,-5.51223 c -3.89046,-7.613775 -8.16086,-10.398395 -16.88276,-11.008675 -6.03283,-0.42216 -7.92769,-0.0225 -11.56637,2.4523 -2.3934,1.62649 -5.68233,4.915435 -7.30877,7.308795 -2.47272,3.63868 -2.87446,5.53357 -2.45234,11.56642 0.32004,4.57379 1.41843,8.46874 3.00066,10.64046 3.13688,4.30552 12.28763,9.05882 17.43948,9.05882 6.46343,0 14.44768,-5.05837 17.70408,-11.21633 l 2.88263,-5.45108 0,94.70938 0,94.70943 -158.35542,0 -158.35541,0 0,-153.34813 z m 195.31699,150.79565 c 32.42849,-3.97637 63.41662,-19.24988 86.57284,-42.67034 8.89062,-8.99201 11.91387,-13.11392 16.59903,-22.63116 9.69677,-19.69756 13.74179,-43.4267 10.87095,-63.77184 -2.80191,-19.85683 -8.44477,-28.99223 -24.67209,-39.94232 -11.30073,-7.62564 -15.54611,-12.57391 -15.54611,-18.11997 0,-4.52571 2.24929,-10.60331 3.92426,-10.60331 0.56031,0 1.84921,-1.606 2.86424,-3.56881 1.6309,-3.153825 1.62639,-3.881685 -0.0388,-6.259125 -1.03648,-1.47968 -3.07559,-2.69027 -4.53147,-2.69027 -5.66382,0 -9.83004,7.841855 -5.12536,9.647265 1.37742,0.52855 2.72236,-0.1308 3.90813,-1.91703 2.04747,-3.083655 4.00624,-3.571165 4.00624,-0.99713 0,0.94923 -1.68388,2.4234 -3.74194,3.27588 -5.29003,2.19121 -12.24268,10.33575 -13.20582,15.4698 -1.16885,6.23054 0.14023,9.0779 6.07783,13.21987 8.53459,5.95361 20.58102,19.0715 23.40462,25.48637 8.42728,19.14569 8.30488,50.01467 -0.29176,73.58554 -5.20353,14.26742 -12.03108,24.97464 -22.77334,35.71406 -17.17208,17.1675 -35.69796,25.737 -65.20478,30.16163 -21.16612,3.1739 -70.21435,3.11586 -91.3829,-0.10824 -36.860992,-5.61408 -60.596516,-17.19786 -68.745152,-33.55009 -5.741434,-11.52154 -3.506071,-23.18037 4.846322,-25.27669 1.712272,-0.42937 3.735445,-1.944 4.49593,-3.365 1.253946,-2.34302 1.148393,-2.45821 -1.133387,-1.23702 -4.97462,2.6623 -8.925698,1.66514 -10.784403,-2.72184 -1.503247,-3.54807 -1.841949,-3.76461 -2.647972,-1.69314 -0.50834,1.30639 -0.300283,4.02832 0.462343,6.04877 0.961549,2.54743 0.997111,4.69728 0.115994,7.01338 -1.880716,4.94376 -1.542934,15.4877 0.665479,20.77316 l 1.937369,4.6368 -4.849405,-3.84078 c -10.880603,-8.61767 -17.623815,-24.6642 -17.623815,-41.93869 0,-12.49918 1.012914,-15.63158 9.739573,-30.11897 14.022903,-23.27995 29.730928,-41.35032 44.897662,-51.64981 4.08583,-2.77465 8.194102,-5.967 9.129499,-7.09406 1.536638,-1.85155 1.372948,-1.92461 -1.696702,-0.7575 -4.511425,1.71516 -4.486249,1.72413 -4.486249,-1.59283 0,-1.58648 1.617606,-5.38888 3.594683,-8.4498 4.006129,-6.2023 58.090131,-61.271365 60.175371,-61.271365 3.12719,0 0.33656,16.80488 -4.50969,27.15696 -1.67409,3.57599 -6.97852,12.017215 -11.78762,18.758165 -12.35491,17.31806 -14.8414,27.723 -7.55667,31.62169 4.0817,2.18445 21.41131,1.54688 32.17637,-1.1838 18.96366,-4.81035 34.13023,-12.08721 66.17968,-31.7528 11.85207,-7.272445 14.40365,-8.365455 18.77733,-8.043735 5.05177,0.37164 5.06086,0.38156 4.7594,5.295375 -0.47025,7.66506 -6.95708,20.00485 -14.88614,28.31767 -8.79708,9.22281 -19.90511,16.35855 -33.86847,21.75685 -12.00007,4.63932 -15.41217,7.0288 -15.41217,10.79305 0,6.54183 5.27261,9.39681 11.34867,6.14497 3.72556,-1.99379 2.87887,-3.26207 -1.81216,-2.71439 -2.32843,0.27196 -4.60013,-0.0988 -5.04821,-0.82403 -0.97825,-1.58277 2.36396,-3.35679 18.04449,-9.57767 6.54076,-2.59487 14.99056,-6.68201 18.77732,-9.08249 9.82968,-6.23121 31.0306,-28.11652 36.66131,-37.84479 10.60977,-18.330635 16.56259,-48.947225 11.74718,-60.417935 -4.19424,-9.99117 -8.94216,-8.14008 -27.64503,10.77794 -17.28791,17.48683 -41.83266,37.55026 -64.57721,52.786975 -27.78874,18.61578 -45.2213,26.43505 -52.02451,23.33534 -5.34158,-2.43381 -3.77516,-6.01016 8.05025,-18.37972 11.26446,-11.78286 23.77174,-29.132395 30.14325,-41.813425 11.805,-23.49505 16.75048,-52.07576 11.58558,-66.9547703 -4.00279,-11.53114 -9.01446,-10.45153 -13.91858,2.9984603 -2.95987,8.11775 -22.87645,38.91204 -35.25923,54.51656 -4.35457,5.48752 -14.45614,17.0188 -22.447929,25.62506 -15.395805,16.579585 -21.186834,24.210145 -25.117701,33.096535 -2.590903,5.85718 -2.216269,9.06066 1.140481,9.75226 1.24277,0.25618 -0.793969,1.76026 -5.045324,3.72614 -8.917712,4.12357 -17.680962,13.16236 -41.014824,42.30437 -19.223892,24.00908 -21.3318391,28.10221 -21.3318391,41.42158 0,29.82847 26.7972911,57.74509 68.8501791,71.72602 16.279545,5.41233 29.846294,7.9437 50.072857,9.34291 22.714,1.57132 62.85618,1.64565 75.14213,0.13937 z m -86.31223,-73.71233 c 9.93701,-9.937 -3.72704,-25.85133 -14.820639,-17.2614 -1.180478,0.91409 -1.224218,1.65255 -0.172877,2.91929 2.214834,2.66876 0.377236,5.81109 -2.807191,4.80039 -2.487081,-0.78943 -2.632464,-0.53059 -1.885235,3.35616 1.850213,9.62394 12.805372,13.06616 19.685962,6.18556 z m -67.694652,-23.8809 c 6.602458,-6.60245 -1.394028,-17.65086 -9.645865,-13.3273 -2.071114,1.08516 -2.716593,2.0094 -1.799249,2.57633 2.299166,1.421 1.649331,3.24002 -1.157463,3.24002 -2.091984,0 -2.431018,0.53983 -1.768955,2.81665 1.95824,6.7341 9.777588,9.28825 14.371532,4.6943 z"
     id="path3338"
     inkscape:connector-curvature="0" />
</svg>
